<mxfile host="65bd71144e">
    <diagram id="Ai7gknxOiUCID7PP0KMs" name="Page-1">
        <mxGraphModel dx="1212" dy="1697" grid="1" gridSize="10" guides="1" tooltips="1" connect="1" arrows="1" fold="1" page="1" pageScale="1" pageWidth="827" pageHeight="1169" math="0" shadow="0">
            <root>
                <mxCell id="0"/>
                <mxCell id="1" parent="0"/>
                <mxCell id="2" style="rounded=0;html=1;strokeWidth=2;fontSize=10;endArrow=blockThin;endFill=1;startSize=12;endSize=12;sourcePerimeterSpacing=0;startArrow=diamondThin;startFill=0;edgeStyle=orthogonalEdgeStyle;" edge="1" parent="1" source="3" target="4">
                    <mxGeometry relative="1" as="geometry"/>
                </mxCell>
                <mxCell id="3" value="BaseDirector" style="swimlane;whiteSpace=wrap;html=1;rounded=1;strokeColor=#C73500;fontSize=10;fillColor=#fa6800;fontColor=#000000;" vertex="1" parent="1">
                    <mxGeometry x="200" y="-1080" width="160" height="80" as="geometry"/>
                </mxCell>
                <mxCell id="4" value="BaseBuilder" style="swimlane;whiteSpace=wrap;html=1;rounded=1;strokeColor=#B20000;fontSize=10;fillColor=#e51400;fontColor=#ffffff;" vertex="1" parent="1">
                    <mxGeometry x="440" y="-1080" width="160" height="80" as="geometry"/>
                </mxCell>
                <mxCell id="6" style="edgeStyle=orthogonalEdgeStyle;html=1;strokeWidth=2;endArrow=block;endFill=0;endSize=12;startSize=12;" edge="1" parent="1" source="5" target="4">
                    <mxGeometry relative="1" as="geometry">
                        <Array as="points">
                            <mxPoint x="520" y="-920"/>
                        </Array>
                    </mxGeometry>
                </mxCell>
                <mxCell id="5" value="ShaderBuilder" style="swimlane;whiteSpace=wrap;html=1;rounded=1;strokeColor=#B20000;fontSize=10;fillColor=#e51400;fontColor=#ffffff;" vertex="1" parent="1">
                    <mxGeometry x="560" y="-960" width="160" height="80" as="geometry"/>
                </mxCell>
                <mxCell id="8" style="edgeStyle=orthogonalEdgeStyle;html=1;strokeWidth=2;endArrow=block;endFill=0;startSize=12;endSize=12;" edge="1" parent="1" source="7" target="3">
                    <mxGeometry relative="1" as="geometry">
                        <Array as="points">
                            <mxPoint x="280" y="-920"/>
                        </Array>
                    </mxGeometry>
                </mxCell>
                <mxCell id="7" value="ShaderDirector" style="swimlane;whiteSpace=wrap;html=1;rounded=1;strokeColor=#C73500;fontSize=10;fillColor=#fa6800;fontColor=#000000;" vertex="1" parent="1">
                    <mxGeometry x="80" y="-960" width="160" height="80" as="geometry"/>
                </mxCell>
                <mxCell id="10" style="edgeStyle=orthogonalEdgeStyle;html=1;strokeWidth=2;endArrow=block;endFill=0;startSize=12;endSize=12;" edge="1" parent="1" source="9" target="4">
                    <mxGeometry relative="1" as="geometry">
                        <Array as="points">
                            <mxPoint x="520" y="-800"/>
                        </Array>
                    </mxGeometry>
                </mxCell>
                <mxCell id="9" value="ModelBuilder" style="swimlane;whiteSpace=wrap;html=1;rounded=1;strokeColor=#B20000;fontSize=10;fillColor=#e51400;fontColor=#ffffff;" vertex="1" parent="1">
                    <mxGeometry x="560" y="-840" width="160" height="80" as="geometry"/>
                </mxCell>
                <mxCell id="12" style="edgeStyle=orthogonalEdgeStyle;html=1;strokeWidth=2;endArrow=block;endFill=0;startSize=12;endSize=12;" edge="1" parent="1" source="11" target="3">
                    <mxGeometry relative="1" as="geometry">
                        <Array as="points">
                            <mxPoint x="280" y="-800"/>
                        </Array>
                    </mxGeometry>
                </mxCell>
                <mxCell id="11" value="ModelDirector" style="swimlane;whiteSpace=wrap;html=1;rounded=1;strokeColor=#C73500;fontSize=10;fillColor=#fa6800;fontColor=#000000;" vertex="1" parent="1">
                    <mxGeometry x="80" y="-840" width="160" height="80" as="geometry"/>
                </mxCell>
            </root>
        </mxGraphModel>
    </diagram>
</mxfile>